<?xml version="1.0" standalone="no"?>
<!DOCTYPE svg PUBLIC "-//W3C//DTD SVG 20010904//EN"
 "http://www.w3.org/TR/2001/REC-SVG-20010904/DTD/svg10.dtd">
<svg version="1.0" xmlns="http://www.w3.org/2000/svg"
 width="1209.000000pt" height="1203.000000pt" viewBox="0 0 1209.000000 1203.000000"
 preserveAspectRatio="xMidYMid meet">
<metadata>
Created by potrace 1.15, written by Peter Selinger 2001-2017
</metadata>
<g transform="translate(0.000000,1203.000000) scale(0.100000,-0.100000)"
fill="#000000" stroke="none">
<path d="M5015 12010 c-504 -102 -883 -485 -992 -1000 -24 -114 -24 -351 0
-472 92 -462 406 -818 857 -968 224 -75 535 -73 774 5 75 24 251 106 270 125
4 4 -12 36 -37 72 -369 521 -590 1148 -487 1386 11 23 20 42 22 42 2 0 3 -42
3 -93 2 -306 302 -817 734 -1247 302 -301 564 -463 747 -464 177 0 222 167
122 454 -69 195 -247 498 -421 712 l-87 108 0 117 c0 395 -184 756 -510 1005
-75 57 -252 146 -360 182 -177 58 -450 74 -635 36z"/>
<path d="M2993 10380 c-231 -25 -488 -131 -675 -280 -177 -142 -287 -274 -523
-630 -526 -795 -785 -1437 -970 -2415 -73 -385 -54 -652 64 -900 82 -171 190
-291 361 -401 l87 -56 6 -82 c3 -44 20 -417 38 -827 l33 -746 -29 -64 c-15
-35 -48 -107 -73 -159 -282 -604 -1259 -2728 -1273 -2767 -111 -323 38 -697
336 -844 213 -105 459 -106 656 -3 137 72 234 175 312 329 77 154 1435 3103
1451 3150 37 116 37 129 -21 1435 -63 1430 -66 1253 27 1565 85 281 225 641
365 932 l54 112 -291 603 c-344 715 -336 698 -354 757 -58 191 0 405 151 557
111 113 240 165 404 165 177 0 321 -73 446 -226 29 -34 230 -434 274 -543 8
-18 19 -31 25 -29 6 2 24 39 39 83 93 260 102 568 22 795 -94 271 -325 440
-663 484 -121 16 -165 17 -279 5z"/>
<path d="M3030 9686 c-249 -56 -400 -289 -349 -538 7 -33 189 -425 491 -1054
363 -758 489 -1012 521 -1049 92 -108 224 -162 369 -152 113 7 2170 457 2241
490 68 31 159 115 196 180 48 85 64 158 58 260 -4 76 -10 98 -43 165 -46 95
-117 165 -211 212 -57 28 -82 34 -155 38 -57 3 -111 -1 -160 -12 -101 -22
-1481 -323 -1596 -348 -53 -11 -97 -17 -102 -12 -5 5 -150 304 -323 664 -491
1022 -460 960 -517 1023 -62 68 -164 122 -260 137 -79 12 -90 12 -160 -4z"/>
<path d="M6765 8896 c-55 -18 -329 -108 -610 -200 -280 -91 -516 -168 -523
-171 -10 -3 -8 -14 7 -43 19 -36 19 -44 7 -121 -7 -45 -11 -83 -7 -85 3 -2 83
15 176 37 147 35 186 40 290 41 141 1 191 -12 302 -81 85 -52 160 -132 205
-220 18 -35 37 -63 41 -63 5 0 126 80 269 178 l260 177 -6 38 c-4 20 -5 37 -4
37 2 1 91 15 198 33 l195 33 -1 51 c-2 58 -16 51 143 74 l82 11 -5 42 -6 43
327 53 326 53 -6 26 c-4 14 -9 28 -11 31 -4 3 -335 -48 -621 -97 -31 -5 -33
-3 -33 23 0 57 4 57 -207 19 -31 -5 -31 -5 -38 45 -4 27 -9 50 -12 50 -3 0
-88 -13 -190 -30 -101 -16 -190 -30 -198 -30 -7 0 -16 16 -19 35 -6 33 -9 35
-45 35 -21 0 -71 2 -112 5 -65 5 -86 1 -174 -29z"/>
<path d="M5750 7131 l-215 -47 2 -150 c1 -82 6 -169 10 -194 l9 -45 324 -26
c179 -15 326 -26 326 -25 1 0 7 97 13 215 9 165 9 216 0 222 -7 4 -57 24 -113
44 -56 21 -105 41 -110 46 -13 12 -2 14 -246 -40z"/>
<path d="M3007 6813 c-11 -19 -79 -240 -103 -338 l-27 -109 16 -400 c10 -221
20 -440 23 -487 l6 -87 324 -88 c178 -48 324 -90 324 -93 0 -4 -122 -517 -270
-1141 -149 -624 -275 -1168 -281 -1208 -19 -137 18 -312 93 -440 47 -81 180
-211 255 -250 70 -37 172 -74 183 -67 4 2 7 53 8 112 0 59 1 111 1 116 1 4 91
7 200 7 l199 0 21 62 c11 35 148 458 305 940 158 482 286 880 286 883 0 3 -72
5 -160 5 l-160 0 0 345 0 345 3555 0 3555 0 0 320 0 320 -3130 0 -3130 0 7 28
c14 50 7 224 -11 297 -61 238 -237 424 -474 499 -95 31 -1583 436 -1599 436
-7 0 -14 -3 -16 -7z"/>
<path d="M4390 4575 l0 -205 184 -2 184 -3 -352 -1080 -352 -1080 -182 -3
-182 -2 0 -205 0 -205 114 0 114 0 -23 -72 c-13 -40 -132 -406 -264 -812 -133
-407 -240 -740 -239 -741 15 -13 383 -124 389 -118 4 4 135 398 290 876 l283
867 3128 0 3127 0 20 -62 c69 -224 545 -1675 551 -1682 8 -8 390 113 390 124
0 3 -119 367 -263 810 l-263 805 113 3 113 3 0 204 0 205 -182 2 -181 3 -352
1080 -351 1080 183 3 183 2 0 205 0 205 -3090 0 -3090 0 0 -205z m5380 -210
c0 -3 158 -489 350 -1079 193 -591 350 -1076 350 -1080 0 -3 -1346 -6 -2991
-6 -2389 0 -2990 3 -2987 13 3 6 162 495 354 1085 l349 1072 2287 0 c1259 0
2288 -2 2288 -5z m-5503 -2297 c35 -38 34 -89 -3 -123 -33 -30 -73 -32 -107
-5 -65 51 -30 150 52 150 26 0 44 -7 58 -22z m6543 2 c44 -44 34 -108 -21
-139 -79 -44 -160 69 -97 136 28 30 89 32 118 3z"/>
<path d="M5127 523 c-4 -3 -7 -116 -7 -250 l0 -243 1010 0 1010 0 0 250 0 250
-1003 0 c-552 0 -1007 -3 -1010 -7z"/>
<path d="M7651 269 c-57 -15 -105 -29 -106 -31 -2 -2 11 -56 28 -120 22 -82
36 -118 46 -118 21 0 215 52 224 60 4 4 -7 59 -24 123 -24 88 -36 117 -48 116
-9 0 -63 -14 -120 -30z"/>
<path d="M8206 270 c-54 -16 -100 -31 -103 -34 -6 -5 45 -207 58 -227 6 -11
29 -8 116 15 59 15 112 32 117 36 6 6 -3 54 -21 122 -24 93 -33 113 -49 115
-10 1 -63 -12 -118 -27z"/>
<path d="M2385 163 c-10 -54 -20 -103 -22 -109 -3 -8 29 -18 89 -28 51 -10
100 -19 109 -22 14 -4 19 12 34 88 9 51 19 100 21 109 4 14 -12 20 -88 33 -51
10 -100 19 -109 22 -14 4 -20 -12 -34 -93z"/>
<path d="M2894 233 l-92 -25 27 -101 c15 -55 32 -102 38 -104 10 -4 192 43
200 50 2 3 -8 50 -23 106 -20 75 -31 101 -43 100 -9 0 -57 -12 -107 -26z"/>
<path d="M4135 163 c-10 -54 -20 -103 -22 -109 -3 -7 30 -18 89 -29 51 -9 100
-19 109 -21 13 -4 20 12 34 88 9 51 19 100 21 109 4 14 -13 20 -93 34 -54 10
-103 20 -109 22 -7 3 -18 -31 -29 -94z"/>
<path d="M4644 233 l-92 -25 27 -101 c15 -55 32 -102 38 -104 11 -4 191 42
200 51 2 2 -8 50 -23 105 -20 76 -31 101 -43 100 -9 0 -57 -12 -107 -26z"/>
<path d="M10592 153 c-11 -59 -20 -109 -18 -110 3 -4 209 -43 212 -40 1 1 9
42 18 92 10 50 19 97 22 106 3 12 -15 19 -93 34 -54 10 -103 20 -109 22 -7 3
-19 -35 -32 -104z"/>
<path d="M11915 233 c-49 -14 -91 -26 -92 -27 -4 -4 49 -191 57 -200 12 -12
212 44 207 58 -2 6 -15 53 -28 104 -17 66 -28 92 -39 91 -8 0 -55 -12 -105
-26z"/>
<path d="M8760 55 l0 -45 665 0 665 0 0 45 0 45 -665 0 -665 0 0 -45z"/>
</g>
</svg>
