<?xml version="1.0" standalone="no"?>
<!DOCTYPE svg PUBLIC "-//W3C//DTD SVG 20010904//EN"
 "http://www.w3.org/TR/2001/REC-SVG-20010904/DTD/svg10.dtd">
<svg version="1.0" xmlns="http://www.w3.org/2000/svg"
 width="853.000000pt" height="465.000000pt" viewBox="0 0 853.000000 465.000000"
 preserveAspectRatio="xMidYMid meet">
<metadata>
Created by potrace 1.15, written by Peter Selinger 2001-2017
</metadata>
<g transform="translate(0.000000,465.000000) scale(0.100000,-0.100000)"
fill="#000000" stroke="none">
<path d="M5528 4635 c-184 -30 -389 -117 -541 -230 -74 -55 -87 -69 -82 -88 9
-41 135 -662 135 -668 0 -3 -99 45 -220 107 -121 61 -226 114 -234 117 -10 4
-21 -17 -40 -74 -78 -237 -85 -486 -21 -728 183 -683 902 -1077 1579 -864 447
140 781 520 861 981 19 110 19 316 0 428 -86 488 -452 878 -940 1000 -127 32
-363 41 -497 19z"/>
<path d="M8025 3594 c-11 -3 -222 -51 -470 -106 -293 -66 -454 -106 -462 -116
-7 -9 -13 -39 -13 -68 0 -133 -58 -347 -137 -504 -71 -141 -137 -233 -245
-344 -54 -55 -97 -101 -95 -102 1 -2 366 80 810 181 562 129 824 193 864 211
75 36 171 132 206 206 39 82 54 182 40 264 -37 214 -199 361 -418 378 -33 3
-69 2 -80 0z"/>
<path d="M3185 2973 c-314 -12 -627 -53 -940 -123 l-91 -21 -78 -253 -79 -254
-31 4 c-113 17 -462 51 -467 45 -4 -3 -46 -78 -94 -166 -49 -88 -93 -166 -100
-173 -9 -10 -47 28 -176 178 -90 104 -166 190 -169 190 -3 0 -48 -27 -100 -61
-111 -72 -207 -166 -241 -235 -25 -52 -32 -139 -16 -219 l7 -40 -157 -75
c-188 -90 -444 -230 -450 -247 -3 -7 59 -118 137 -248 l143 -235 41 24 c165
96 493 262 502 253 9 -8 34 -157 59 -337 29 -220 53 -325 90 -404 28 -59 98
-130 149 -151 89 -37 245 -27 386 25 170 63 188 72 193 94 3 11 9 94 13 184 3
89 9 176 13 193 l6 31 183 -146 c195 -155 187 -151 259 -125 34 13 264 65 387
89 280 53 711 97 1271 130 110 7 210 15 223 19 20 5 0 34 -229 311 -138 168
-264 328 -280 355 -72 124 -91 303 -46 436 45 131 141 250 252 313 152 85 357
90 510 14 93 -47 152 -107 428 -443 154 -187 283 -344 288 -349 12 -14 27 32
39 126 9 67 8 103 -4 187 -9 58 -13 108 -9 112 5 3 94 26 198 49 105 24 194
45 199 48 5 3 -38 22 -95 42 -149 53 -211 83 -321 157 -171 114 -319 269 -416
436 -24 42 -49 77 -55 77 -6 0 -36 -5 -67 -12 l-56 -11 -115 55 c-214 104
-348 134 -659 148 -195 9 -275 10 -435 3z"/>
<path d="M3915 2289 c-150 -37 -282 -165 -321 -311 -29 -111 -9 -266 46 -355
10 -18 261 -326 557 -684 296 -359 566 -687 601 -730 76 -95 129 -140 208
-176 50 -23 75 -28 164 -31 l105 -3 450 136 c248 75 483 146 523 158 l72 22 1
75 c1 41 4 128 8 192 l6 117 198 -125 c109 -68 204 -124 212 -124 26 0 279 81
325 105 162 82 263 283 233 461 -34 197 -187 348 -380 375 -113 16 -38 35
-962 -245 -497 -151 -617 -184 -626 -174 -11 11 -121 145 -698 847 -71 86
-164 199 -207 251 -88 108 -164 172 -242 202 -61 24 -210 33 -273 17z"/>
</g>
</svg>
