<?xml version="1.0" standalone="no"?>
<!DOCTYPE svg PUBLIC "-//W3C//DTD SVG 20010904//EN"
 "http://www.w3.org/TR/2001/REC-SVG-20010904/DTD/svg10.dtd">
<svg version="1.0" xmlns="http://www.w3.org/2000/svg"
 width="1709.000000pt" height="351.000000pt" viewBox="0 0 1709.000000 351.000000"
 preserveAspectRatio="xMidYMid meet">
<metadata>
Created by potrace 1.15, written by Peter Selinger 2001-2017
</metadata>
<g transform="translate(0.000000,351.000000) scale(0.100000,-0.100000)"
fill="#000000" stroke="none">
<path d="M16475 3480 c-17 -18 -25 -37 -25 -61 1 -60 46 -345 71 -443 16 -66
62 -100 135 -100 45 0 58 4 84 29 16 16 30 38 30 49 -1 17 -3 15 -14 -9 -16
-36 -32 -50 -69 -59 -69 -17 -138 24 -156 92 -15 56 -60 324 -67 400 -6 64 -5
70 20 97 l27 30 -22 -32 c-21 -31 -22 -36 -11 -126 21 -173 63 -381 81 -407
28 -38 83 -56 131 -41 22 6 45 21 51 32 19 37 39 190 46 356 5 142 4 165 -11
190 l-17 28 20 -24 c19 -20 21 -38 23 -145 l2 -121 6 105 c10 181 2 189 -176
187 -131 -1 -135 -2 -159 -27z"/>
<path d="M12695 2903 c-62 -32 -107 -68 -140 -113 -19 -26 -35 -54 -35 -61 1
-8 9 1 18 19 46 85 159 163 232 161 31 -1 30 -2 -13 -9 -56 -10 -119 -45 -164
-92 -93 -97 -86 -266 17 -369 132 -132 368 -92 446 75 71 153 -22 336 -196
382 -35 10 -39 13 -17 13 40 1 115 -41 164 -91 116 -120 111 -288 -12 -396
-135 -119 -349 -84 -439 71 -27 47 -46 134 -40 187 l4 35 -10 -30 c-12 -37 4
-133 30 -186 11 -20 42 -57 71 -83 148 -133 383 -81 470 103 29 62 29 150 -1
213 -27 58 -104 137 -162 165 -54 26 -177 30 -223 6z"/>
<path d="M16569 2821 c-34 -33 -39 -45 -39 -83 0 -36 6 -52 34 -84 31 -36 38
-39 84 -39 44 0 55 4 86 34 20 19 36 42 36 50 0 9 -8 3 -18 -14 -26 -41 -44
-55 -85 -62 -32 -5 -106 21 -94 34 3 3 16 -2 29 -11 74 -52 183 40 148 125
-46 110 -199 81 -200 -38 0 -23 5 -45 10 -48 6 -3 10 -11 10 -18 0 -6 -7 -2
-15 9 -8 10 -15 39 -15 63 0 37 5 49 36 77 59 56 130 44 175 -30 11 -19 19
-25 19 -15 0 9 -18 33 -40 53 -32 29 -48 36 -81 36 -35 0 -48 -6 -80 -39z"/>
<path d="M15959 2826 c-95 -34 -168 -109 -189 -195 -21 -90 15 -208 84 -268
46 -42 84 -52 196 -56 94 -4 96 -3 146 30 51 33 113 107 100 120 -3 3 -6 1 -6
-6 0 -34 -131 -141 -172 -141 -7 0 10 11 38 24 61 28 117 92 134 151 57 202
-143 408 -331 341z"/>
<path d="M17 2352 c-16 -17 -17 -110 -17 -1136 0 -751 3 -1124 10 -1137 10
-18 23 -19 185 -19 162 0 175 1 185 19 6 13 10 243 10 677 0 362 2 655 5 652
3 -3 71 -301 150 -663 79 -361 149 -663 156 -671 17 -20 222 -20 242 1 8 8 21
45 30 82 8 37 72 331 142 653 71 322 132 589 137 595 4 5 8 -290 8 -656 0
-504 3 -668 12 -677 8 -8 64 -12 185 -12 160 0 173 1 183 19 7 13 10 386 10
1139 0 1071 -1 1120 -18 1135 -16 15 -48 17 -235 17 -250 0 -247 1 -266 -92
-46 -216 -310 -1380 -310 -1368 0 8 -72 332 -158 720 -113 505 -163 710 -175
722 -16 16 -41 18 -236 18 -199 0 -220 -2 -235 -18z"/>
<path d="M8668 2359 c-17 -9 -18 -74 -18 -1142 0 -868 3 -1136 12 -1145 17
-17 359 -17 376 0 9 9 12 108 12 385 l0 373 94 0 c82 0 95 -2 100 -17 3 -10
46 -175 97 -368 50 -192 95 -358 101 -368 8 -16 26 -17 196 -15 l187 3 3 26
c2 14 -40 188 -93 387 -52 199 -95 369 -95 377 0 8 4 15 9 15 26 0 109 82 138
136 50 95 53 128 53 596 0 519 -4 548 -101 653 -47 50 -129 90 -219 104 -86
14 -829 14 -852 0z m743 -417 l29 -32 0 -306 c0 -205 -4 -312 -11 -327 -27
-53 -42 -57 -216 -57 l-163 0 0 381 0 381 166 -4 166 -3 29 -33z"/>
<path d="M10132 2358 c-9 -9 -12 -276 -12 -1139 0 -620 3 -1134 6 -1143 5 -14
31 -16 188 -16 128 0 186 4 194 12 9 9 12 277 12 1145 0 1109 0 1133 -19 1143
-29 15 -354 13 -369 -2z"/>
<path d="M10818 2359 c-17 -9 -18 -74 -18 -1142 0 -868 3 -1136 12 -1145 17
-17 359 -17 376 0 9 9 12 108 12 385 l0 373 218 0 c227 0 278 7 357 47 86 45
150 137 174 251 15 72 15 872 0 944 -15 70 -64 161 -108 200 -48 42 -123 75
-201 87 -86 14 -799 14 -822 0z m709 -412 l28 -27 3 -293 c2 -160 0 -307 -3
-326 -4 -18 -18 -44 -32 -57 -25 -23 -32 -24 -174 -24 l-149 0 0 381 0 381
150 -4 c148 -3 150 -3 177 -31z"/>
<path d="M12950 2309 c-219 -13 -321 -48 -370 -126 -54 -85 -61 -140 -70 -578
-8 -377 -25 -649 -66 -1055 -8 -85 -18 -207 -21 -270 -5 -104 -3 -120 15 -156
26 -51 60 -74 111 -74 33 0 47 7 75 34 19 19 39 50 45 68 5 18 24 134 41 258
58 423 110 687 135 684 45 -4 114 -309 164 -721 21 -173 41 -236 88 -286 15
-15 22 -27 16 -27 -7 0 -21 13 -33 30 -42 59 -62 123 -80 259 -10 75 -18 118
-19 96 -1 -62 27 -235 46 -280 9 -22 30 -56 45 -77 28 -36 28 -36 104 -35 l75
0 31 40 c29 37 32 46 34 126 l2 86 -7 -81 c-5 -65 -12 -90 -34 -123 -15 -22
-32 -41 -38 -41 -6 0 3 16 19 35 39 44 46 83 37 198 -9 121 -57 502 -101 802
-69 473 -75 522 -81 687 -7 201 -3 218 65 245 41 15 81 18 297 18 213 1 255 3
281 18 77 41 50 131 -53 175 -121 52 -488 86 -753 71z"/>
<path d="M15793 2239 c-316 -10 -381 -29 -490 -141 -110 -113 -284 -473 -268
-554 7 -39 47 -74 84 -74 37 0 110 48 149 98 18 23 60 98 93 168 102 213 113
224 240 224 60 0 69 -2 69 -18 0 -51 -196 -629 -280 -822 -33 -79 -39 -86 -76
-98 -30 -11 -66 -12 -154 -5 -63 4 -158 8 -210 8 -147 0 -224 -38 -237 -119
-5 -34 -2 -40 39 -80 30 -29 67 -51 109 -66 59 -21 86 -23 325 -27 252 -5 262
-4 312 17 70 30 122 90 183 212 69 139 85 160 112 152 63 -18 213 -144 256
-215 12 -19 21 -50 21 -70 0 -61 -62 -224 -155 -409 -22 -44 -39 -94 -42 -126
-5 -49 -3 -55 25 -83 23 -24 39 -31 69 -31 55 0 133 40 179 93 83 94 294 526
294 601 -1 57 -30 116 -92 184 l-52 57 53 -50 c29 -27 63 -70 76 -95 13 -25
24 -38 25 -29 0 25 -50 86 -165 199 -125 123 -176 189 -186 239 -7 36 -7 36
-8 5 -1 -32 31 -84 93 -154 l31 -35 -38 35 c-49 45 -97 117 -97 146 0 64 92
362 126 409 17 23 20 21 188 -120 203 -169 233 -181 312 -127 107 72 238 209
295 307 16 28 29 45 29 39 0 -26 -90 -144 -175 -230 -108 -109 -174 -154 -226
-154 -42 0 -100 39 -269 183 -146 123 -135 121 -170 43 -30 -66 -91 -267 -89
-295 0 -9 7 9 16 39 28 103 75 245 92 278 l17 33 29 -23 c17 -12 73 -59 125
-104 204 -175 244 -191 336 -133 65 41 229 208 280 286 41 61 41 62 42 157 1
91 -1 97 -25 116 -65 51 -135 16 -257 -128 -78 -92 -125 -127 -155 -117 -11 3
-60 52 -109 108 -228 259 -298 309 -420 305 -26 0 -151 -5 -279 -9z"/>
<path d="M2372 2071 c-17 -11 -504 -1968 -496 -1993 5 -16 20 -18 178 -18 127
0 176 3 183 13 6 6 27 80 47 162 20 83 41 167 47 188 l10 37 264 0 c242 0 264
-1 269 -17 3 -10 25 -95 50 -190 24 -95 47 -177 51 -182 4 -7 69 -11 181 -11
153 0 175 2 181 17 7 18 -473 1970 -490 1991 -11 14 -453 18 -475 3z m403
-1248 l5 -23 -176 0 c-137 0 -175 3 -172 13 3 6 43 177 89 378 l84 366 82
-356 c45 -196 85 -366 88 -378z"/>
<path d="M3576 2064 c-14 -14 -16 -117 -16 -990 0 -653 3 -982 10 -995 10 -18
23 -19 190 -19 167 0 180 1 190 19 6 12 10 117 10 271 l0 250 51 102 51 101
180 -354 c99 -195 187 -362 196 -372 14 -16 34 -17 211 -15 l196 3 3 27 c2 19
-72 174 -258 537 -144 282 -259 518 -256 526 3 8 112 202 242 432 131 229 239
427 242 440 9 49 -6 53 -201 53 -153 0 -183 -2 -198 -16 -10 -9 -117 -185
-236 -391 l-218 -375 -5 382 c-4 324 -7 382 -20 390 -8 5 -90 10 -182 10 -138
0 -169 -3 -182 -16z"/>
<path d="M5122 2068 c-17 -17 -17 -1979 0 -1996 17 -17 1119 -17 1136 0 15 15
17 335 2 358 -8 13 -63 15 -380 18 l-370 3 0 204 0 205 279 0 c241 0 282 2
295 16 13 13 16 43 16 175 0 92 -4 169 -10 180 -10 18 -24 19 -295 19 l-285 0
0 220 0 220 370 0 c355 0 370 1 380 19 13 26 13 326 0 352 -10 18 -27 19 -568
19 -421 0 -561 -3 -570 -12z"/>
<path d="M6552 2068 c-19 -19 -18 -1981 2 -1997 9 -8 68 -11 187 -9 l174 3 3
298 2 297 125 0 124 0 10 -37 c6 -21 38 -150 71 -287 33 -137 65 -255 72 -263
8 -11 49 -13 187 -11 l176 3 3 25 c1 14 -31 162 -72 330 l-74 304 43 41 c52
48 89 120 105 200 8 41 10 180 8 440 -3 366 -4 382 -26 440 -38 101 -106 169
-207 207 -58 22 -73 23 -480 26 -326 2 -423 0 -433 -10z m708 -386 c56 -28 62
-60 58 -332 -4 -316 6 -303 -235 -308 l-163 -4 0 331 0 331 153 0 c125 0 158
-3 187 -18z"/>
<path d="M13245 1957 l-50 -12 -3 -91 -3 -90 93 -17 c63 -11 75 -15 37 -12
-30 3 -71 7 -90 10 l-34 5 30 -11 c17 -6 80 -12 140 -14 284 -9 328 -4 364 42
48 60 7 123 -91 142 -47 9 -248 44 -318 55 -14 2 -47 -1 -75 -7z"/>
<path d="M15765 1093 c-9 -8 -41 -65 -71 -125 -62 -124 -122 -196 -191 -228
-45 -21 -57 -22 -315 -18 -151 1 -255 -1 -236 -5 18 -5 137 -9 264 -10 252 -1
263 1 346 60 50 36 83 83 148 213 58 114 65 122 98 107 61 -26 187 -136 224
-195 20 -33 21 -65 3 -152 -2 -14 2 -7 9 15 19 52 19 100 2 133 -15 29 -132
145 -182 180 -52 36 -81 44 -99 25z"/>
<path d="M8025 443 c-40 -10 -45 -30 -45 -191 0 -86 5 -162 10 -173 10 -18 23
-19 179 -19 145 0 171 2 182 17 11 12 14 55 14 174 0 205 11 193 -178 196 -78
1 -151 -1 -162 -4z"/>
</g>
</svg>
