<?xml version="1.0" standalone="no"?>
<!DOCTYPE svg PUBLIC "-//W3C//DTD SVG 20010904//EN"
 "http://www.w3.org/TR/2001/REC-SVG-20010904/DTD/svg10.dtd">
<svg version="1.0" xmlns="http://www.w3.org/2000/svg"
 width="4467.000000pt" height="3000.000000pt" viewBox="0 0 4467.000000 3000.000000"
 preserveAspectRatio="xMidYMid meet">
<metadata>
Created by potrace 1.15, written by Peter Selinger 2001-2017
</metadata>
<g transform="translate(0.000000,3000.000000) scale(0.100000,-0.100000)"
fill="#000000" stroke="none">
<path d="M37315 29980 c-504 -102 -883 -485 -992 -1000 -24 -114 -24 -351 0
-472 92 -462 406 -818 857 -968 224 -75 535 -73 774 5 75 24 251 106 270 125
4 4 -12 36 -37 72 -369 521 -590 1148 -487 1386 11 23 20 42 22 42 2 0 3 -42
3 -93 2 -306 302 -817 734 -1247 302 -301 564 -463 747 -464 177 0 222 167
122 454 -69 195 -247 498 -421 712 l-87 108 0 117 c0 395 -184 756 -510 1005
-75 57 -252 146 -360 182 -177 58 -450 74 -635 36z"/>
<path d="M35293 28350 c-231 -25 -488 -131 -675 -280 -177 -142 -287 -274
-523 -630 -526 -795 -785 -1437 -970 -2415 -73 -385 -54 -652 64 -900 82 -171
190 -291 361 -401 l87 -56 6 -82 c3 -44 20 -417 38 -827 l33 -746 -29 -64
c-15 -35 -48 -107 -73 -159 -282 -604 -1259 -2728 -1273 -2767 -111 -323 38
-697 336 -844 213 -105 459 -106 656 -3 137 72 234 175 312 329 77 154 1435
3103 1451 3150 37 116 37 129 -21 1435 -63 1430 -66 1253 27 1565 85 281 225
641 365 932 l54 112 -291 603 c-344 715 -336 698 -354 757 -58 191 0 405 151
557 111 113 240 165 404 165 177 0 321 -73 446 -226 29 -34 230 -434 274 -543
8 -18 19 -31 25 -29 6 2 24 39 39 83 93 260 102 568 22 795 -94 271 -325 440
-663 484 -121 16 -165 17 -279 5z"/>
<path d="M35330 27656 c-249 -56 -400 -289 -349 -538 7 -33 189 -425 491
-1054 363 -758 489 -1012 521 -1049 92 -108 224 -162 369 -152 113 7 2170 457
2241 490 68 31 159 115 196 180 48 85 64 158 58 260 -4 76 -10 98 -43 165 -46
95 -117 165 -211 212 -57 28 -82 34 -155 38 -57 3 -111 -1 -160 -12 -101 -22
-1481 -323 -1596 -348 -53 -11 -97 -17 -102 -12 -5 5 -150 304 -323 664 -491
1022 -460 960 -517 1023 -62 68 -164 122 -260 137 -79 12 -90 12 -160 -4z"/>
<path d="M39065 26866 c-55 -18 -329 -108 -610 -200 -280 -91 -516 -168 -523
-171 -10 -3 -8 -14 7 -43 19 -36 19 -44 7 -121 -7 -45 -11 -83 -7 -85 3 -2 83
15 176 37 147 35 186 40 290 41 141 1 191 -12 302 -81 85 -52 160 -132 205
-220 18 -35 37 -63 41 -63 5 0 126 80 269 178 l260 177 -6 38 c-4 20 -5 37 -4
37 2 1 91 15 198 33 l195 33 -1 51 c-2 58 -16 51 143 74 l82 11 -5 42 -6 43
327 53 326 53 -6 26 c-4 14 -9 28 -11 31 -4 3 -335 -48 -621 -97 -31 -5 -33
-3 -33 23 0 57 4 57 -207 19 -31 -5 -31 -5 -38 45 -4 27 -9 50 -12 50 -3 0
-88 -13 -190 -30 -101 -16 -190 -30 -198 -30 -7 0 -16 16 -19 35 -6 33 -9 35
-45 35 -21 0 -71 2 -112 5 -65 5 -86 1 -174 -29z"/>
<path d="M38050 25101 l-215 -47 2 -150 c1 -82 6 -169 10 -194 l9 -45 324 -26
c179 -15 326 -26 326 -25 1 0 7 97 13 215 9 165 9 216 0 222 -7 4 -57 24 -113
44 -56 21 -105 41 -110 46 -13 12 -2 14 -246 -40z"/>
<path d="M35307 24783 c-11 -19 -79 -240 -103 -338 l-27 -109 16 -400 c10
-221 20 -440 23 -487 l6 -87 324 -88 c178 -48 324 -90 324 -93 0 -4 -122 -517
-270 -1141 -149 -624 -275 -1168 -281 -1208 -19 -137 18 -312 93 -440 47 -81
180 -211 255 -250 70 -37 172 -74 183 -67 4 2 7 53 8 112 0 59 1 111 1 116 1
4 91 7 200 7 l199 0 21 63 c11 34 148 457 305 939 158 482 286 880 286 883 0
3 -72 5 -160 5 l-160 0 0 345 0 345 3555 0 3555 0 0 320 0 320 -3130 0 -3130
0 7 28 c14 50 7 224 -11 297 -61 238 -237 424 -474 499 -95 31 -1583 436
-1599 436 -7 0 -14 -3 -16 -7z"/>
<path d="M12638 22805 c-184 -30 -389 -117 -541 -230 -74 -55 -87 -69 -82 -88
9 -41 135 -662 135 -668 0 -3 -99 45 -220 107 -121 61 -226 114 -234 117 -10
4 -21 -17 -40 -74 -78 -237 -85 -486 -21 -728 183 -683 902 -1077 1579 -864
447 140 781 520 861 981 19 110 19 316 0 428 -86 488 -452 878 -940 1000 -127
32 -363 41 -497 19z"/>
<path d="M36690 22545 l0 -205 184 -2 184 -3 -352 -1080 -352 -1080 -182 -3
-182 -2 0 -205 0 -205 114 0 114 0 -23 -72 c-13 -40 -132 -406 -264 -812 -133
-407 -240 -740 -239 -741 15 -13 383 -124 389 -118 4 4 135 398 290 876 l283
867 3128 0 3127 0 20 -62 c69 -224 545 -1675 551 -1682 8 -8 390 113 390 124
0 3 -119 367 -263 810 l-263 805 113 3 113 3 0 204 0 205 -182 2 -181 3 -352
1080 -351 1080 183 3 183 2 0 205 0 205 -3090 0 -3090 0 0 -205z m5380 -210
c0 -3 158 -489 350 -1079 193 -591 350 -1076 350 -1080 0 -3 -1346 -6 -2991
-6 -2389 0 -2990 3 -2987 13 3 6 162 495 354 1085 l349 1072 2287 0 c1259 0
2288 -2 2288 -5z m-5503 -2297 c35 -38 34 -89 -3 -123 -33 -30 -73 -32 -107
-5 -65 51 -30 150 52 150 26 0 44 -7 58 -22z m6543 2 c44 -44 34 -108 -21
-139 -79 -44 -160 69 -97 136 28 30 89 32 118 3z"/>
<path d="M15135 21764 c-11 -3 -222 -51 -470 -106 -293 -66 -454 -106 -462
-116 -7 -9 -13 -39 -13 -68 0 -133 -58 -347 -137 -504 -71 -141 -137 -233
-245 -344 -54 -55 -97 -101 -95 -102 1 -2 366 80 810 181 562 129 824 193 864
211 75 36 171 132 206 206 39 82 54 182 40 264 -37 214 -199 361 -418 378 -33
3 -69 2 -80 0z"/>
<path d="M10295 21143 c-314 -12 -627 -53 -940 -123 l-91 -21 -78 -253 -79
-254 -31 4 c-113 17 -462 51 -467 45 -4 -3 -46 -78 -94 -166 -49 -88 -93 -166
-100 -173 -9 -10 -47 28 -176 178 -90 104 -166 190 -169 190 -3 0 -48 -27
-100 -61 -111 -72 -207 -166 -241 -235 -25 -52 -32 -139 -16 -219 l7 -40 -157
-75 c-188 -90 -444 -230 -450 -247 -3 -7 59 -118 137 -248 l143 -235 41 24
c165 96 493 262 502 253 9 -8 34 -157 59 -337 29 -220 53 -325 90 -404 28 -59
98 -130 149 -151 89 -37 245 -27 386 25 170 63 188 72 193 94 3 11 9 94 13
184 3 89 9 176 13 193 l6 31 183 -146 c195 -155 187 -151 259 -125 34 13 264
65 387 89 280 53 711 97 1271 130 110 7 210 15 223 19 20 5 0 34 -229 311
-138 168 -264 328 -280 355 -72 124 -91 303 -46 436 45 131 141 250 252 313
152 85 357 90 510 14 93 -47 152 -107 428 -443 154 -187 283 -344 288 -349 12
-14 27 32 39 126 9 67 8 103 -4 187 -9 58 -13 108 -9 112 5 3 94 26 198 49
105 24 194 45 199 48 5 3 -38 22 -95 42 -149 53 -211 83 -321 157 -171 114
-319 269 -416 436 -24 42 -49 77 -55 77 -6 0 -36 -5 -67 -12 l-56 -11 -115 55
c-214 104 -348 134 -659 148 -195 9 -275 10 -435 3z"/>
<path d="M11025 20459 c-150 -37 -282 -165 -321 -311 -29 -111 -9 -266 46
-355 10 -18 261 -326 557 -684 296 -359 566 -687 601 -730 76 -95 129 -140
208 -176 50 -23 75 -28 164 -31 l105 -3 450 136 c248 75 483 146 523 158 l72
22 1 75 c1 41 4 128 8 192 l6 117 198 -125 c109 -68 204 -124 212 -124 26 0
279 81 325 105 162 82 263 283 233 461 -34 197 -187 348 -380 375 -113 16 -38
35 -962 -245 -497 -151 -617 -184 -626 -174 -11 11 -121 145 -698 847 -71 86
-164 199 -207 251 -88 108 -164 172 -242 202 -61 24 -210 33 -273 17z"/>
<path d="M37427 18493 c-4 -3 -7 -116 -7 -250 l0 -243 1010 0 1010 0 0 250 0
250 -1003 0 c-552 0 -1007 -3 -1010 -7z"/>
<path d="M39951 18239 c-57 -15 -105 -29 -106 -31 -2 -2 11 -56 28 -120 22
-82 36 -118 46 -118 21 0 215 52 224 60 4 4 -7 59 -24 123 -24 88 -36 117 -48
116 -9 0 -63 -14 -120 -30z"/>
<path d="M40506 18240 c-54 -16 -100 -31 -103 -34 -6 -5 45 -207 58 -227 6
-11 29 -8 116 15 59 15 112 32 117 36 6 6 -3 54 -21 122 -24 93 -33 113 -49
115 -10 1 -63 -12 -118 -27z"/>
<path d="M34685 18133 c-10 -54 -20 -103 -22 -109 -3 -8 29 -18 89 -28 51 -10
100 -19 109 -22 14 -4 19 12 34 88 9 51 19 100 21 109 4 14 -12 20 -88 33 -51
10 -100 19 -109 22 -14 4 -20 -12 -34 -93z"/>
<path d="M35194 18203 l-92 -25 27 -101 c15 -55 32 -102 38 -104 10 -4 192 43
200 50 2 3 -8 50 -23 106 -20 75 -31 101 -43 100 -9 0 -57 -12 -107 -26z"/>
<path d="M36435 18133 c-10 -54 -20 -103 -22 -109 -3 -7 30 -18 89 -29 51 -9
100 -19 109 -21 13 -4 20 12 34 88 9 51 19 100 21 109 4 14 -13 20 -93 34 -54
10 -103 20 -109 22 -7 3 -18 -31 -29 -94z"/>
<path d="M36944 18203 l-92 -25 27 -101 c15 -55 32 -102 38 -104 11 -4 191 42
200 51 2 2 -8 50 -23 105 -20 76 -31 101 -43 100 -9 0 -57 -12 -107 -26z"/>
<path d="M42892 18123 c-11 -59 -20 -109 -18 -110 3 -4 209 -43 212 -40 1 1 9
43 18 92 10 50 19 97 22 106 3 12 -15 19 -93 34 -54 10 -103 20 -109 22 -7 3
-19 -35 -32 -104z"/>
<path d="M44215 18203 c-49 -14 -91 -26 -92 -27 -4 -4 49 -191 57 -200 12 -12
212 44 207 58 -2 6 -15 53 -28 104 -17 66 -28 92 -39 91 -8 0 -55 -12 -105
-26z"/>
<path d="M41060 18025 l0 -45 665 0 665 0 0 45 0 45 -665 0 -665 0 0 -45z"/>
<path d="M112 17797 c-41 -13 -88 -65 -101 -114 -15 -53 -15 -8303 0 -8356 14
-52 60 -101 107 -115 28 -9 201 -12 604 -12 608 0 606 0 655 52 57 60 53 -120
53 2553 l0 2455 34 0 c29 0 34 -4 39 -27 71 -354 1074 -4887 1087 -4912 24
-47 66 -86 112 -105 53 -22 677 -24 729 -2 78 33 115 82 143 192 8 32 249
1130 536 2439 286 1309 523 2388 526 2398 4 11 15 17 35 17 l29 0 2 -2462 3
-2463 25 -45 c18 -32 38 -52 70 -68 l44 -22 581 0 c541 0 583 2 620 19 22 10
47 27 56 37 46 56 44 -183 44 4254 l0 4165 -28 48 c-54 92 2 87 -897 87 l-785
0 -52 -24 c-71 -33 -98 -77 -132 -217 -15 -63 -286 -1276 -602 -2696 -316
-1420 -575 -2580 -576 -2579 -1 1 -268 1197 -593 2657 -325 1459 -597 2674
-605 2699 -24 71 -61 116 -115 139 -48 21 -58 21 -832 20 -517 -1 -794 -5
-816 -12z"/>
<path d="M32395 17795 c-16 -9 -39 -28 -50 -43 -20 -27 -20 -45 -23 -4232 -2
-3988 -1 -4207 15 -4240 10 -20 35 -44 58 -57 l40 -23 621 0 621 0 33 23 c18
12 43 35 54 50 l21 28 3 1390 2 1389 368 0 367 0 359 -1368 c197 -752 367
-1386 377 -1410 21 -50 33 -63 77 -86 29 -15 93 -16 672 -14 l640 3 31 31 c23
23 32 43 36 75 3 35 -71 331 -367 1454 -204 776 -373 1418 -376 1427 -4 13 12
26 68 54 289 144 498 386 607 703 30 88 68 247 83 356 10 70 13 428 13 1645 0
1442 -1 1563 -18 1665 -108 668 -472 1048 -1117 1167 l-125 23 -1530 2 c-1358
3 -1533 1 -1560 -12z m2525 -1415 c202 -22 315 -120 349 -305 15 -78 15 -2179
1 -2256 -16 -87 -67 -178 -127 -226 -99 -79 -81 -77 -755 -81 l-598 -3 0 1441
0 1440 518 0 c284 0 560 -5 612 -10z"/>
<path d="M37890 17792 c-19 -9 -43 -33 -55 -52 l-20 -35 0 -4201 0 -4200 27
-42 c20 -29 39 -44 65 -52 26 -8 230 -10 660 -8 610 3 622 3 649 24 15 11 37
33 48 48 l21 27 3 4187 c2 2859 0 4198 -7 4223 -13 44 -39 75 -75 89 -18 6
-245 10 -654 10 -577 0 -630 -1 -662 -18z"/>
<path d="M40440 17799 c-44 -18 -69 -50 -80 -103 -8 -37 -10 -1228 -8 -4216 3
-4144 3 -4165 23 -4199 11 -19 33 -43 48 -55 28 -21 36 -21 666 -24 l637 -2
35 23 c69 46 64 -63 67 1470 l2 1387 674 0 c387 0 730 5 807 11 421 33 724
156 958 388 224 222 349 512 391 906 8 80 10 525 8 1635 -4 1634 -2 1543 -52
1765 -55 237 -165 450 -318 611 -190 201 -423 318 -773 387 -109 21 -117 21
-1585 24 -977 1 -1483 -1 -1500 -8z m2502 -1437 c81 -27 142 -72 185 -136 74
-109 74 -110 71 -1326 l-3 -1075 -23 -67 c-42 -124 -129 -202 -260 -234 -44
-10 -174 -13 -569 -14 l-513 0 0 1441 0 1441 523 -4 c506 -4 524 -5 589 -26z"/>
<path d="M8900 16729 c-32 -13 -68 -47 -85 -79 -11 -21 -559 -2219 -1706
-6845 -118 -478 -126 -529 -85 -570 13 -13 39 -26 57 -30 19 -3 297 -5 619 -3
l585 3 31 22 c17 13 39 38 47 56 9 18 92 343 184 723 l169 689 1009 0 1010 0
176 -690 c97 -379 185 -706 195 -725 11 -19 34 -45 53 -57 l35 -23 603 2 603
3 32 32 c27 28 32 39 31 80 -1 27 -310 1291 -693 2833 -380 1532 -786 3165
-901 3630 -115 465 -218 861 -227 880 -12 22 -34 43 -62 58 l-44 22 -806 -1
c-510 0 -814 -4 -830 -10z m924 -2284 c242 -1049 567 -2452 572 -2467 5 -17
-31 -18 -666 -18 -658 0 -671 0 -668 19 2 11 152 661 333 1445 194 840 333
1418 337 1408 4 -9 45 -183 92 -387z"/>
<path d="M13432 16727 c-45 -17 -88 -60 -104 -105 -11 -30 -13 -682 -13 -3662
l0 -3625 25 -45 c18 -32 38 -52 70 -67 l44 -23 596 0 c556 0 598 2 635 19 22
10 48 28 58 39 47 52 46 41 47 1046 l0 948 197 379 197 378 136 -267 c75 -147
323 -631 550 -1077 647 -1271 690 -1354 718 -1387 14 -17 49 -41 77 -54 l50
-24 645 0 c618 0 647 1 688 20 57 26 88 89 74 154 -7 33 -1526 3020 -1910
3756 l-65 126 918 1614 c505 888 924 1629 931 1647 34 81 4 160 -76 201 l-45
22 -636 -2 -636 -3 -48 -30 c-26 -16 -61 -46 -76 -65 -25 -32 -234 -389 -1337
-2293 l-347 -598 -5 1428 c-5 1379 -6 1429 -24 1466 -11 22 -37 51 -59 65
l-41 27 -600 2 c-446 1 -609 -1 -634 -10z"/>
<path d="M19175 16726 c-37 -16 -70 -52 -84 -89 -8 -20 -11 -1114 -11 -3670 0
-3558 1 -3643 19 -3684 14 -30 31 -48 60 -62 40 -21 41 -21 2084 -21 l2044 0
34 23 c66 44 64 22 67 662 2 319 0 599 -3 623 -4 27 -17 55 -35 75 l-28 32
-1381 3 -1381 2 0 795 0 795 1038 0 c967 0 1039 1 1071 18 19 9 44 30 55 45
21 28 21 39 23 645 l3 617 -23 40 c-42 75 36 70 -1124 73 l-1043 2 0 825 0
825 1363 2 c1332 3 1363 3 1394 23 70 42 68 21 68 700 0 691 4 658 -78 696
-41 18 -99 19 -2072 18 -1670 0 -2035 -2 -2060 -13z"/>
<path d="M24550 16729 c-32 -13 -68 -47 -86 -81 -12 -23 -14 -562 -14 -3680 0
-3538 1 -3654 19 -3688 10 -19 36 -45 57 -57 l39 -23 597 3 c585 2 597 2 624
23 15 11 37 33 48 48 21 27 21 34 24 1112 l2 1084 473 0 473 0 262 -1077 c144
-592 270 -1093 280 -1112 11 -20 36 -46 58 -58 l39 -23 593 0 c661 0 650 -1
677 64 8 20 15 48 15 63 0 15 -128 557 -283 1203 l-284 1175 66 44 c85 58 203
176 270 271 130 185 207 397 252 695 16 109 25 2356 10 2605 -18 300 -64 497
-160 695 -186 380 -495 601 -971 693 l-135 26 -1460 2 c-969 2 -1468 0 -1485
-7z m2496 -1400 c130 -24 229 -101 275 -215 l24 -59 0 -950 0 -950 -24 -63
c-28 -73 -94 -149 -160 -182 -89 -45 -158 -49 -748 -50 l-553 0 0 1240 0 1240
563 0 c365 0 584 -4 623 -11z"/>
<path d="M29948 10613 c-35 -5 -94 -71 -107 -120 -15 -52 -15 -1114 0 -1166
14 -52 60 -101 107 -115 54 -17 1134 -17 1183 -1 47 16 94 63 108 108 16 54
16 1128 -1 1183 -15 50 -58 94 -105 107 -36 10 -1121 14 -1185 4z"/>
<path d="M21295 7351 c-51 -23 -101 -72 -122 -120 -20 -46 -21 -146 -1 -191
49 -115 190 -170 306 -120 91 39 142 116 142 215 0 166 -176 284 -325 216z"/>
<path d="M12909 7315 c-15 -8 -34 -31 -44 -51 -15 -33 -16 -49 -6 -168 23
-256 72 -520 106 -573 35 -52 58 -15 93 147 22 101 57 345 67 472 12 139 -22
188 -129 188 -33 -1 -73 -7 -87 -15z"/>
<path d="M1780 7175 l0 -115 179 0 179 0 11 -32 c5 -18 146 -474 312 -1013
165 -539 311 -1000 324 -1025 32 -64 64 -89 126 -101 101 -21 177 18 223 114
14 29 104 338 201 687 230 826 221 795 227 784 5 -8 170 -569 370 -1254 32
-113 72 -227 87 -255 35 -64 78 -88 143 -81 78 8 112 30 146 94 39 75 49 107
202 662 72 261 153 552 179 645 26 94 85 306 131 473 l84 302 143 0 143 0 0
115 0 115 -440 0 -440 0 0 -115 0 -115 158 -2 159 -3 -208 -800 c-114 -440
-208 -802 -209 -805 -1 -3 -41 139 -90 315 -49 176 -105 379 -125 450 -20 72
-80 290 -134 485 l-98 355 -161 3 -161 2 -16 -52 c-16 -56 -223 -813 -352
-1287 -55 -201 -79 -276 -84 -260 -98 357 -432 1569 -435 1582 -5 16 7 17 161
17 l166 0 -3 113 -3 112 -547 3 -548 2 0 -115z"/>
<path d="M5270 7190 l0 -100 155 0 155 0 0 -985 0 -985 -145 0 -145 0 0 -90 0
-90 465 0 465 0 0 90 0 90 -150 0 -150 0 0 403 c0 369 2 410 20 481 30 117 80
204 165 285 240 228 483 175 525 -116 5 -37 10 -290 10 -560 l0 -493 -150 0
-150 0 0 -90 0 -90 490 0 490 0 0 90 0 90 -170 0 -169 0 -3 558 c-4 618 -3
604 -73 749 -133 272 -587 315 -851 80 -31 -29 -75 -78 -96 -111 l-38 -59 0
476 0 477 -325 0 -325 0 0 -100z"/>
<path d="M9861 7273 c-21 -19 -57 -87 -134 -258 -118 -262 -233 -400 -392
-471 l-64 -29 -1 -42 0 -43 160 0 160 0 0 -562 c0 -350 4 -580 11 -608 17 -75
69 -172 119 -220 56 -55 165 -114 238 -129 75 -16 238 -14 305 4 133 35 206
93 262 210 47 96 63 189 71 403 l7 182 -100 0 -101 0 -5 -187 c-3 -112 -10
-204 -18 -228 -36 -113 -114 -170 -231 -169 -59 0 -74 4 -110 30 -54 38 -84
82 -97 145 -7 32 -11 242 -11 589 l0 540 305 0 305 0 0 90 0 90 -305 0 -305 0
0 324 c0 282 -2 327 -16 340 -20 20 -27 20 -53 -1z"/>
<path d="M11480 7175 l0 -115 190 0 190 0 0 -945 0 -945 -190 0 -190 0 0 -115
0 -115 555 0 555 0 0 115 0 115 -175 0 -175 0 0 945 0 945 175 0 175 0 0 115
0 115 -555 0 -555 0 0 -115z"/>
<path d="M18010 7190 l0 -100 185 0 185 0 0 -336 0 -337 -40 51 c-109 137
-306 208 -505 183 -193 -23 -322 -96 -444 -251 -195 -246 -237 -746 -91 -1093
76 -182 226 -327 395 -380 58 -18 93 -22 205 -22 131 0 137 1 202 32 92 43
178 111 230 182 24 33 46 60 49 60 3 1 13 -36 23 -81 10 -46 22 -100 27 -120
l10 -38 279 0 280 0 0 90 0 90 -140 0 -140 0 0 1085 0 1085 -355 0 -355 0 0
-100z m115 -750 c55 -27 135 -112 170 -181 164 -322 129 -804 -75 -1031 -103
-116 -258 -156 -374 -98 -105 53 -203 204 -243 375 -26 116 -26 415 1 535 45
200 123 336 224 393 88 49 204 52 297 7z"/>
<path d="M27183 7275 c-21 -15 -47 -65 -133 -255 -121 -266 -236 -405 -395
-476 l-64 -29 -1 -42 0 -43 160 0 160 0 0 -562 c0 -350 4 -580 11 -608 17 -75
69 -172 119 -220 56 -55 165 -114 238 -129 75 -16 238 -14 305 4 133 35 206
93 262 210 47 96 63 189 71 403 l7 182 -100 0 -101 0 -5 -187 c-5 -194 -13
-239 -53 -304 -41 -66 -137 -106 -226 -94 -61 9 -124 54 -158 115 l-25 45 -3
573 -3 572 306 0 305 0 0 90 0 90 -305 0 -305 0 0 324 c0 282 -2 327 -16 340
-19 20 -24 20 -51 1z"/>
<path d="M8003 6646 c-190 -36 -307 -100 -403 -220 -70 -90 -90 -136 -90 -221
0 -53 6 -82 24 -120 42 -92 112 -130 222 -123 118 7 195 90 198 211 1 49 -4
70 -22 99 -29 47 -79 78 -140 87 l-47 7 44 32 c105 77 286 111 414 77 78 -20
132 -57 168 -113 35 -56 48 -96 56 -182 15 -165 -87 -257 -442 -400 -309 -125
-442 -217 -503 -349 -22 -47 -27 -70 -27 -146 0 -191 88 -312 268 -367 92 -28
269 -22 366 12 133 47 274 166 337 284 l31 58 7 -45 c17 -113 119 -241 233
-295 54 -25 67 -27 198 -27 130 1 144 2 195 27 171 80 230 219 230 539 l0 159
-83 0 -84 0 -6 -164 c-5 -129 -10 -174 -27 -218 -32 -86 -78 -119 -166 -120
-70 -1 -116 33 -153 111 l-26 56 -6 475 c-4 323 -10 489 -18 520 -48 177 -171
293 -366 345 -83 22 -291 28 -382 11z m425 -998 c-3 -178 -4 -185 -31 -241
-43 -87 -137 -175 -244 -228 -84 -42 -92 -44 -175 -44 -72 0 -91 4 -114 21
-55 40 -69 70 -69 142 0 115 53 181 210 260 161 80 333 191 384 246 14 14 28
26 33 26 5 0 8 -81 6 -182z"/>
<path d="M14424 6641 c-163 -44 -280 -133 -345 -261 l-27 -51 -5 33 c-3 18
-11 86 -18 151 -8 76 -17 121 -25 124 -7 2 -142 -1 -301 -9 l-288 -13 -3 -92
-3 -93 156 0 155 0 0 -655 0 -655 -155 0 -155 0 0 -90 0 -90 460 0 460 0 0 90
0 90 -136 0 -136 0 5 458 c5 506 8 541 71 677 57 122 151 181 291 179 169 -3
264 -109 285 -321 5 -54 10 -299 10 -545 l0 -448 -135 0 -135 0 0 -90 0 -90
440 0 440 0 0 90 0 90 -135 0 -136 0 3 528 c3 526 3 527 26 585 32 77 103 148
179 178 75 29 179 31 245 6 67 -26 132 -101 160 -185 21 -65 22 -82 26 -589
l3 -523 -125 0 -126 0 0 -90 0 -90 440 0 440 0 0 90 0 90 -144 0 -145 0 -3
553 c-4 605 -3 596 -68 734 -75 161 -236 252 -446 253 -88 0 -210 -30 -279
-70 -64 -36 -166 -143 -198 -206 l-23 -46 -22 58 c-41 112 -125 199 -227 235
-86 32 -254 36 -351 10z"/>
<path d="M19813 6650 c-90 -13 -199 -47 -278 -88 -106 -55 -247 -200 -302
-312 -139 -282 -141 -653 -6 -929 108 -219 304 -363 560 -412 81 -15 309 -7
388 15 86 23 210 87 280 143 82 67 148 152 201 258 54 109 82 216 93 353 32
404 -128 747 -413 887 -50 25 -127 54 -171 66 -91 23 -259 32 -352 19z m309
-232 c117 -62 202 -195 241 -376 31 -147 31 -413 -2 -537 -56 -214 -161 -342
-317 -390 -136 -41 -290 6 -390 119 -128 145 -185 398 -155 679 29 262 120
436 271 512 101 51 248 49 352 -7z"/>
<path d="M23040 6649 c-52 -10 -136 -43 -200 -78 -56 -31 -191 -165 -209 -208
-7 -18 -16 -33 -20 -33 -4 0 -14 68 -23 151 -9 83 -19 153 -21 156 -3 3 -139
-1 -301 -8 l-296 -13 0 -93 0 -93 150 0 150 0 0 -655 0 -655 -150 0 -150 0 0
-90 0 -90 465 0 465 0 0 90 0 90 -141 0 -140 0 3 448 c4 430 5 450 27 522 48
161 123 258 239 313 58 27 77 31 147 31 129 -1 204 -48 259 -164 l31 -65 3
-542 3 -543 -141 0 -140 0 0 -90 0 -90 475 0 475 0 0 90 0 90 -159 0 -160 0
-3 548 c-4 489 -6 554 -22 612 -71 257 -238 383 -500 379 -39 -1 -91 -5 -116
-10z"/>
<path d="M24690 6644 c-275 -59 -474 -308 -536 -671 -20 -117 -14 -360 11
-473 40 -177 114 -318 225 -430 119 -119 245 -170 426 -170 64 0 112 6 157 20
122 38 237 135 300 251 l27 52 0 -159 c0 -256 -24 -399 -90 -539 -47 -99 -111
-167 -200 -209 -55 -25 -80 -31 -159 -34 -53 -3 -117 1 -148 8 l-54 12 41 44
c52 57 70 99 70 166 -1 102 -55 177 -149 204 -87 26 -194 3 -254 -54 -50 -48
-70 -98 -70 -182 1 -87 14 -125 70 -195 124 -155 434 -221 730 -154 289 64
491 323 542 694 7 49 11 352 11 836 l0 759 115 0 115 0 0 95 0 95 -264 0
c-243 0 -265 -1 -270 -17 -3 -10 -10 -63 -16 -118 -6 -55 -14 -107 -16 -115
-3 -9 -18 9 -40 47 -82 147 -274 254 -449 252 -33 0 -89 -7 -125 -15z m318
-229 c72 -34 115 -68 159 -129 170 -235 190 -723 40 -978 -32 -56 -120 -142
-171 -168 -53 -27 -139 -43 -189 -35 -183 28 -294 180 -342 474 -23 138 -17
370 14 484 25 97 80 203 138 267 94 105 235 139 351 85z"/>
<path d="M28805 6650 c-391 -61 -636 -340 -676 -768 -28 -308 62 -587 250
-772 147 -144 324 -210 566 -210 219 0 371 54 535 190 126 103 231 313 261
519 16 116 6 332 -21 441 -42 169 -146 341 -269 443 -63 52 -190 113 -286 137
-93 24 -271 33 -360 20z m306 -225 c110 -56 199 -183 240 -344 45 -175 46
-426 3 -594 -63 -247 -235 -400 -434 -384 -105 8 -175 40 -251 116 -114 114
-167 260 -176 487 -21 499 174 791 504 752 34 -4 85 -19 114 -33z"/>
<path d="M30915 6639 c-126 -10 -251 -18 -277 -18 l-48 -1 0 -95 0 -95 150 0
150 0 0 -960 0 -960 -185 0 -185 0 0 -100 0 -100 530 0 530 0 0 100 0 100
-175 0 -175 0 0 309 0 310 56 -60 c115 -119 235 -169 407 -169 128 1 232 25
317 74 270 154 420 519 381 924 -39 402 -245 683 -548 747 -205 44 -412 -23
-542 -176 -31 -36 -61 -74 -68 -85 -9 -15 -12 10 -12 129 l-1 147 -37 -1 c-21
-1 -141 -10 -268 -20z m839 -219 c174 -88 276 -323 276 -637 0 -322 -112 -593
-279 -675 -70 -34 -187 -32 -262 5 -139 68 -233 244 -270 507 -16 110 -6 309
21 420 46 189 153 342 272 389 73 29 174 25 242 -9z"/>
<path d="M33564 6650 c-58 -12 -137 -54 -184 -97 -45 -40 -137 -172 -146 -209
-3 -13 -9 -24 -13 -24 -4 0 -15 71 -25 157 -9 87 -19 159 -21 161 -2 2 -137
-2 -299 -9 l-296 -13 0 -93 0 -93 150 0 150 0 0 -655 0 -655 -150 0 -150 0 0
-90 0 -90 500 0 500 0 0 90 0 90 -175 0 -175 0 0 419 c0 450 5 516 53 657 42
121 77 175 146 225 37 27 108 55 117 46 3 -3 -4 -24 -16 -48 -47 -91 -7 -216
85 -263 54 -28 150 -33 208 -11 54 20 110 75 133 130 21 51 22 168 1 217 -23
55 -82 113 -139 138 -59 25 -184 35 -254 20z"/>
<path d="M34745 6646 c-243 -47 -425 -192 -540 -429 -234 -486 -50 -1085 388
-1260 113 -45 214 -60 366 -54 153 6 213 21 332 83 86 45 196 150 248 237 39
66 80 165 88 211 l5 32 -88 27 c-49 15 -92 27 -96 27 -3 0 -13 -21 -22 -46
-35 -103 -150 -233 -251 -283 -146 -73 -338 -67 -463 13 -45 29 -112 99 -140
147 -56 93 -102 266 -102 380 l0 59 601 0 600 0 -6 58 c-3 31 -8 82 -11 112
-8 74 -48 208 -88 294 -84 182 -253 323 -451 376 -102 27 -273 35 -370 16z
m324 -221 c130 -65 241 -256 241 -412 l0 -43 -416 0 -416 0 7 43 c37 239 184
418 365 445 74 10 159 -2 219 -33z"/>
<path d="M36230 6650 c-47 -4 -172 -13 -277 -20 l-193 -14 0 -93 0 -93 150 0
150 0 0 -960 0 -960 -185 0 -185 0 0 -100 0 -100 530 0 530 0 0 100 0 100
-175 0 -175 0 0 310 0 311 60 -64 c105 -113 237 -167 404 -167 223 0 391 82
519 253 67 89 97 148 131 257 104 328 57 727 -113 973 -39 57 -136 150 -191
185 -227 141 -521 114 -704 -64 -32 -32 -71 -78 -87 -103 l-29 -45 0 152 0
152 -37 -2 c-21 0 -76 -4 -123 -8z m695 -230 c109 -53 201 -185 246 -355 30
-113 37 -354 15 -484 -23 -130 -72 -273 -119 -343 -162 -243 -478 -195 -598
91 -158 378 -91 886 141 1056 69 51 113 65 195 62 50 -2 84 -9 120 -27z"/>
<path d="M38365 6650 c-218 -35 -403 -156 -482 -318 -37 -74 -39 -185 -6 -247
44 -83 114 -125 206 -125 127 0 217 88 217 211 0 107 -58 172 -169 188 l-45 6
54 36 c104 69 252 101 371 81 167 -29 248 -124 257 -303 4 -81 2 -91 -24 -139
-49 -89 -166 -162 -439 -270 -284 -113 -435 -224 -486 -359 -31 -83 -25 -224
14 -303 45 -93 138 -164 252 -194 68 -19 223 -18 298 2 165 42 318 162 396
308 12 24 22 34 25 25 2 -8 9 -34 16 -59 24 -90 86 -175 165 -226 81 -52 149
-67 279 -62 95 3 120 8 169 31 85 39 130 78 165 145 49 91 62 166 69 370 l6
182 -92 0 -91 0 0 -148 c0 -162 -12 -229 -51 -287 -57 -83 -195 -92 -257 -16
-7 9 -22 34 -35 56 -22 39 -22 48 -28 515 -6 515 -8 529 -66 650 -52 108 -170
195 -318 234 -72 20 -287 29 -370 16z m413 -1015 c-3 -146 -6 -165 -29 -215
-52 -112 -193 -232 -320 -271 -171 -53 -289 7 -289 150 0 115 63 186 246 279
134 69 277 160 344 220 55 49 54 55 48 -163z"/>
<path d="M40690 6645 c-123 -35 -224 -126 -295 -269 -19 -38 -35 -67 -35 -65
-8 80 -40 323 -44 326 -3 3 -137 -1 -298 -8 l-293 -14 -3 -92 -3 -93 151 0
150 0 0 -655 0 -655 -150 0 -150 0 0 -90 0 -90 500 0 500 0 0 90 0 90 -175 0
-175 0 0 409 c0 434 6 511 52 651 47 146 108 229 198 269 73 33 81 29 54 -26
-41 -80 -24 -173 42 -235 98 -92 279 -73 354 37 73 107 61 266 -27 351 -75 71
-233 102 -353 69z"/>
<path d="M41867 6640 c-249 -52 -444 -226 -550 -490 -73 -184 -91 -437 -43
-625 85 -330 304 -549 609 -611 124 -25 326 -16 432 20 232 79 390 256 459
511 5 18 -5 23 -87 48 -106 31 -107 31 -107 15 0 -25 -61 -140 -97 -185 -55
-67 -164 -139 -247 -164 -56 -17 -90 -20 -167 -17 -87 3 -104 7 -172 41 -164
81 -261 261 -283 525 l-7 82 603 0 603 0 -7 84 c-22 293 -145 535 -334 659
-171 113 -392 152 -605 107z m343 -213 c126 -61 223 -222 245 -404 l6 -53
-420 0 -420 0 6 38 c25 180 125 343 252 410 101 54 231 58 331 9z"/>
<path d="M20940 6520 l0 -90 155 0 155 0 0 -655 0 -654 -152 -3 -153 -3 -3
-87 -3 -88 476 0 475 0 0 90 0 90 -150 0 -150 0 0 745 0 745 -325 0 -325 0 0
-90z"/>
<path d="M2575 3090 c-201 -40 -329 -168 -384 -385 -25 -97 -41 -225 -41 -322
l0 -73 -155 0 -155 0 0 -90 0 -90 155 0 155 0 0 -655 0 -655 -155 0 -155 0 0
-95 0 -95 520 0 520 0 0 95 0 95 -195 0 -195 0 0 655 0 655 245 0 245 0 0 29
c0 15 3 56 6 90 l7 61 -257 0 -256 0 0 144 c0 244 22 344 94 424 48 53 119 83
201 83 67 1 157 -20 189 -44 19 -14 18 -16 -20 -35 -165 -85 -159 -296 11
-368 121 -51 256 11 300 137 22 63 19 174 -6 226 -45 93 -176 177 -321 207
-82 17 -281 20 -353 6z"/>
<path d="M21971 3059 c-181 -35 -244 -277 -103 -400 47 -42 91 -59 150 -59 93
0 164 40 210 119 22 38 27 58 27 111 -1 155 -129 259 -284 229z"/>
<path d="M7610 2948 c-11 -18 -50 -98 -86 -178 -146 -319 -244 -445 -409 -526
-74 -36 -75 -38 -75 -76 l0 -38 154 0 154 0 5 -567 c4 -610 4 -608 58 -720 32
-66 122 -153 197 -191 231 -114 542 -62 655 112 74 112 97 226 97 472 l0 174
-95 0 -95 0 0 -137 c-1 -216 -24 -328 -83 -392 -79 -86 -261 -80 -330 10 -57
76 -57 81 -57 684 l0 555 305 0 305 0 0 90 0 90 -305 0 -305 0 0 316 c0 198
-4 322 -10 335 -17 31 -57 24 -80 -13z"/>
<path d="M8510 2880 l0 -100 150 0 150 0 0 -980 0 -980 -140 0 -140 0 0 -95 0
-95 465 0 465 0 0 95 0 95 -150 0 -150 0 0 413 c0 454 1 468 62 594 23 49 55
91 113 149 83 83 145 121 239 145 109 27 222 -35 268 -149 23 -57 23 -59 26
-604 l3 -548 -151 0 -150 0 0 -95 0 -95 490 0 490 0 0 95 0 95 -165 0 -165 0
0 498 c0 527 -6 616 -48 735 -45 126 -111 199 -229 254 -165 76 -386 65 -550
-29 -69 -38 -156 -119 -199 -182 l-34 -51 0 468 0 467 -325 0 -325 0 0 -100z"/>
<path d="M19540 2880 l0 -100 160 0 160 0 0 -1075 0 -1075 78 0 77 0 54 143
c30 78 57 145 60 149 4 4 19 -17 34 -46 95 -181 325 -298 556 -282 365 26 628
334 659 774 36 497 -172 871 -539 969 -86 23 -244 22 -324 -1 -92 -27 -173
-75 -242 -142 l-63 -62 0 424 0 424 -335 0 -335 0 0 -100z m1215 -744 c108
-64 174 -165 219 -337 71 -271 53 -575 -46 -777 -46 -93 -135 -182 -211 -210
-119 -45 -209 -22 -307 77 -129 130 -200 356 -200 638 0 297 120 554 291 622
79 31 188 25 254 -13z"/>
<path d="M34552 2883 l3 -98 173 -3 172 -2 0 -980 0 -980 -172 -2 -173 -3 0
-90 0 -90 513 -3 512 -2 0 95 0 95 -165 0 -165 0 0 1080 0 1080 -350 0 -351 0
3 -97z"/>
<path d="M3850 2354 c-141 -15 -189 -28 -297 -80 -266 -128 -408 -349 -444
-692 -24 -221 21 -441 127 -622 46 -79 179 -213 257 -259 201 -118 463 -142
712 -64 90 28 205 103 291 189 68 68 90 99 132 185 70 141 93 238 99 419 11
304 -69 535 -246 710 -62 61 -96 85 -181 128 -68 33 -131 57 -180 66 -83 16
-216 26 -270 20z m232 -226 c113 -52 212 -195 252 -362 64 -264 30 -604 -77
-772 -37 -59 -116 -131 -177 -161 -50 -25 -65 -28 -160 -28 -98 1 -109 3 -167
33 -124 64 -212 187 -255 358 -20 77 -23 114 -22 274 1 201 12 277 60 403 50
129 154 237 263 272 74 24 212 15 283 -17z"/>
<path d="M5898 2345 c-140 -35 -243 -128 -317 -285 l-28 -60 -12 88 c-6 48
-14 119 -17 159 -4 39 -9 76 -13 81 -4 6 -109 5 -301 -4 -162 -7 -296 -13
-297 -14 -2 0 -3 -40 -3 -90 l0 -90 155 0 155 0 0 -655 0 -655 -155 0 -155 0
0 -95 0 -95 500 0 500 0 0 95 0 95 -176 0 -176 0 5 437 c4 471 7 501 63 658
53 147 114 211 242 250 l23 7 -20 -39 c-43 -85 -35 -164 22 -230 44 -50 98
-73 175 -73 101 0 170 40 215 125 31 59 31 193 0 251 -29 54 -93 109 -151 129
-68 23 -167 27 -234 10z"/>
<path d="M11385 2354 c-371 -54 -621 -315 -690 -718 -51 -298 29 -596 215
-799 70 -76 117 -111 216 -161 124 -61 210 -80 369 -80 130 0 147 2 241 32
166 52 279 138 374 284 44 66 89 174 92 219 3 31 1 32 -62 54 -121 41 -113 42
-140 -23 -48 -118 -138 -220 -240 -272 -103 -53 -268 -69 -373 -36 -75 23
-171 96 -218 166 -71 106 -119 270 -119 406 l0 64 597 0 596 0 -6 98 c-7 111
-32 219 -76 320 -96 227 -252 363 -481 422 -82 21 -232 33 -295 24z m254 -228
c67 -34 137 -104 179 -177 34 -60 72 -189 72 -246 l0 -33 -416 0 -417 0 7 49
c22 167 133 338 260 403 61 31 93 37 181 34 64 -2 91 -8 134 -30z"/>
<path d="M15634 2350 c-118 -13 -175 -29 -269 -75 -163 -79 -271 -187 -350
-350 -62 -127 -86 -230 -92 -403 -8 -214 15 -338 93 -497 79 -160 180 -265
334 -344 140 -72 265 -97 430 -87 164 10 278 45 393 119 196 127 314 315 357
567 17 97 17 295 1 390 -19 106 -72 249 -125 333 -50 81 -156 188 -231 235
-146 90 -352 133 -541 112z m259 -223 c196 -90 300 -355 284 -722 -13 -288
-108 -485 -275 -567 -62 -31 -74 -33 -167 -33 -93 0 -105 2 -167 33 -205 101
-312 381 -280 733 26 286 114 469 264 545 79 40 95 44 193 41 73 -2 101 -8
148 -30z"/>
<path d="M17795 2349 c-187 -28 -325 -123 -408 -281 l-25 -47 -18 161 -18 160
-60 -6 c-34 -3 -142 -8 -241 -11 -99 -3 -206 -8 -237 -11 l-58 -6 0 -89 0 -89
150 0 150 0 0 -655 0 -655 -150 0 -150 0 0 -95 0 -95 455 0 455 0 0 95 0 95
-136 0 -137 0 6 452 c6 496 10 540 68 668 38 82 85 131 161 165 53 24 70 27
141 23 139 -6 214 -65 260 -200 20 -60 21 -86 25 -585 l3 -523 -135 0 -136 0
0 -95 0 -95 440 0 440 0 0 95 0 95 -135 0 -136 0 3 523 3 522 24 60 c52 129
170 205 317 205 102 0 169 -32 219 -105 70 -101 69 -91 73 -677 l3 -528 -125
0 -126 0 0 -95 0 -95 440 0 440 0 0 95 0 95 -144 0 -145 0 -4 558 c-3 498 -5
563 -21 617 -72 244 -223 356 -481 358 -119 1 -188 -14 -279 -60 -64 -32 -164
-132 -201 -201 l-29 -53 -22 55 c-47 117 -124 197 -224 234 -66 24 -210 34
-295 21z"/>
<path d="M23325 2350 c-176 -26 -321 -103 -436 -229 -159 -174 -239 -394 -239
-659 0 -66 6 -153 14 -194 61 -313 262 -553 536 -636 375 -114 743 20 904 328
41 77 79 191 69 201 -14 13 -178 58 -184 51 -4 -4 -12 -24 -18 -44 -18 -56
-82 -147 -140 -201 -104 -97 -278 -150 -418 -127 -222 36 -372 248 -398 563
l-7 87 602 0 603 0 -7 90 c-22 293 -159 547 -360 669 -143 86 -351 127 -521
101z m278 -224 c115 -56 210 -191 242 -341 8 -38 15 -80 15 -92 l0 -23 -419 0
-418 0 8 51 c31 198 155 367 309 423 70 25 192 17 263 -18z"/>
<path d="M25799 2350 c-159 -16 -323 -85 -411 -174 -68 -68 -123 -155 -138
-215 -13 -54 -2 -139 24 -189 26 -51 89 -99 146 -111 147 -32 270 62 272 207
1 98 -53 164 -154 187 l-52 11 44 31 c78 53 154 75 271 81 146 6 203 -11 275
-82 41 -42 56 -66 70 -112 25 -86 24 -189 -3 -239 -48 -92 -173 -169 -440
-276 -386 -153 -524 -293 -511 -518 11 -189 135 -318 338 -352 125 -20 241 -1
370 62 102 50 221 162 265 249 l28 55 12 -50 c27 -120 115 -233 217 -280 167
-77 385 -50 509 62 90 81 119 183 126 441 l6 192 -91 0 -90 0 -4 -177 c-3
-166 -5 -181 -28 -228 -72 -144 -243 -136 -314 15 -20 43 -21 65 -27 520 -6
517 -8 534 -67 644 -97 181 -346 276 -643 246z m369 -1040 c-3 -134 -5 -149
-30 -200 -31 -63 -111 -151 -180 -198 -117 -81 -277 -109 -352 -62 -77 47 -98
152 -50 249 31 61 91 110 204 166 119 59 249 139 330 204 l75 60 3 -37 c2 -20
2 -102 0 -182z"/>
<path d="M27325 2335 c-159 -13 -293 -24 -297 -24 -5 -1 -8 -41 -8 -91 l0 -90
150 0 150 0 0 -965 0 -965 -185 0 -185 0 0 -95 0 -95 530 0 530 0 0 100 0 100
-170 0 -170 0 0 304 0 305 51 -54 c176 -186 445 -226 697 -104 258 125 412
430 412 814 0 198 -37 362 -118 520 -83 164 -259 312 -407 343 -91 19 -151 22
-231 12 -147 -20 -303 -117 -383 -237 l-31 -46 0 146 c0 146 0 147 -22 146
-13 -1 -153 -12 -313 -24z m850 -214 c130 -62 223 -201 270 -406 16 -66 22
-226 13 -335 -16 -206 -82 -401 -170 -496 -143 -156 -381 -133 -507 50 -124
180 -171 546 -105 815 74 302 297 469 499 372z"/>
<path d="M29800 2354 c-159 -17 -217 -34 -340 -98 -101 -54 -240 -192 -293
-292 -158 -304 -152 -716 15 -999 50 -84 182 -218 261 -264 323 -190 781 -126
1022 141 101 112 178 289 206 471 18 116 7 320 -24 438 -95 365 -358 580 -737
602 -41 3 -91 3 -110 1z m230 -226 c113 -52 208 -186 251 -353 25 -102 38
-292 28 -423 -19 -251 -112 -427 -271 -513 -61 -33 -67 -34 -168 -34 -95 1
-111 4 -165 30 -80 40 -162 123 -203 209 -53 110 -73 202 -79 367 -15 400 102
661 330 735 69 23 210 14 277 -18z"/>
<path d="M31643 2350 c-116 -13 -171 -29 -278 -80 -107 -52 -175 -104 -246
-188 -232 -276 -286 -742 -124 -1062 105 -209 264 -335 502 -402 96 -26 301
-31 403 -9 89 20 209 72 273 120 77 57 160 152 203 233 41 79 78 189 66 199
-8 8 -174 61 -177 57 -1 -2 -12 -25 -25 -53 -23 -47 -111 -160 -155 -197 -46
-40 -148 -89 -216 -104 -99 -23 -215 -8 -315 41 -203 99 -313 360 -283 670 11
122 31 193 83 300 52 107 95 159 177 214 91 61 178 84 293 79 83 -3 102 -8
168 -41 47 -23 91 -54 119 -84 l43 -47 -50 -11 c-121 -28 -184 -101 -184 -212
1 -198 268 -295 419 -152 43 40 71 117 71 194 0 176 -83 323 -240 424 -137 89
-340 131 -527 111z"/>
<path d="M33259 2350 c-136 -13 -293 -72 -378 -141 -48 -38 -119 -127 -152
-189 -36 -68 -34 -176 5 -247 81 -147 285 -160 381 -25 24 35 30 55 33 111 6
108 -38 166 -147 194 l-53 14 26 21 c82 64 202 96 340 90 118 -5 181 -30 238
-97 67 -79 94 -253 51 -336 -47 -91 -171 -168 -439 -275 -152 -61 -205 -87
-306 -152 -92 -59 -141 -111 -177 -187 -23 -50 -26 -68 -26 -161 1 -94 3 -111
28 -162 82 -167 295 -250 522 -203 161 34 329 153 410 290 l40 69 7 -44 c19
-111 109 -230 212 -280 164 -81 391 -57 515 55 45 41 92 130 111 210 6 28 14
134 17 238 l6 187 -92 0 -91 0 0 -150 c0 -226 -22 -293 -110 -337 -89 -46
-171 -18 -224 77 l-31 55 -6 480 -5 480 -27 81 c-43 130 -113 211 -235 273
-100 51 -287 77 -443 61z m369 -1030 c-3 -146 -5 -158 -31 -213 -100 -202
-414 -346 -546 -250 -65 48 -80 151 -35 241 33 66 74 100 199 164 137 70 261
148 342 214 l68 56 3 -28 c2 -16 2 -99 0 -184z"/>
<path d="M37875 2334 c-236 -18 -381 -23 -682 -23 l-383 -1 0 -90 0 -89 128
-3 128 -3 -185 -587 c-102 -322 -188 -589 -191 -592 -5 -4 -440 1160 -440
1177 0 4 63 7 140 7 l140 0 0 90 0 90 -485 0 -485 0 0 -90 0 -90 153 0 152 0
309 -765 c345 -854 317 -761 270 -929 -50 -176 -123 -283 -227 -332 -57 -26
-106 -30 -156 -13 -38 14 -39 20 -2 41 50 28 84 90 83 151 -1 82 -19 134 -61
176 -92 92 -296 57 -371 -63 -66 -108 -29 -292 75 -372 l32 -24 321 0 321 0
50 50 c65 65 116 141 179 265 60 121 106 244 423 1133 l243 682 258 0 258 0 0
-965 0 -965 -180 0 -180 0 0 -95 0 -95 525 0 525 0 0 100 0 100 -170 0 -170 0
0 305 0 304 46 -49 c59 -63 135 -113 221 -147 59 -23 84 -27 183 -27 130 -1
205 15 304 65 180 92 309 266 373 505 25 91 27 115 27 299 1 158 -3 216 -17
275 -74 318 -263 542 -502 599 -141 33 -270 20 -390 -38 -95 -47 -153 -94
-212 -174 l-43 -59 0 146 c0 133 -2 146 -17 145 -10 -1 -153 -12 -318 -25z
m821 -201 c137 -46 239 -178 289 -377 31 -124 39 -238 26 -381 -28 -294 -123
-493 -273 -571 -54 -28 -171 -30 -240 -4 -114 43 -187 136 -247 316 -42 128
-55 230 -48 408 8 245 65 407 182 522 98 96 199 125 311 87z"/>
<path d="M40180 2353 c-174 -18 -359 -100 -450 -199 -146 -159 -135 -430 23
-569 62 -54 200 -125 312 -159 363 -111 462 -149 532 -202 87 -66 115 -193 61
-284 -28 -49 -89 -97 -154 -123 -103 -40 -314 -46 -437 -13 -67 19 -157 55
-157 65 1 3 20 15 43 26 95 45 120 211 44 294 -34 37 -95 61 -160 61 -233 1
-307 -306 -117 -484 124 -116 373 -184 625 -173 397 18 610 163 644 436 36
293 -129 469 -564 600 -426 129 -495 171 -495 304 0 99 80 184 210 225 115 36
359 17 464 -35 l28 -15 -34 -29 c-46 -37 -68 -85 -68 -148 0 -98 60 -168 163
-191 93 -20 187 23 228 107 19 38 24 64 24 123 0 87 -22 134 -96 208 -118 117
-434 200 -669 175z"/>
<path d="M41925 2354 c-386 -57 -641 -339 -695 -768 -30 -233 21 -460 147
-659 14 -23 60 -76 103 -118 65 -65 93 -85 181 -127 151 -72 217 -87 379 -86
100 0 152 5 200 19 171 48 295 132 392 265 59 82 132 261 112 279 -7 7 -165
61 -179 61 -2 0 -11 -22 -20 -49 -47 -143 -175 -265 -325 -312 -92 -29 -226
-29 -303 -1 -186 68 -306 266 -324 535 l-6 97 602 0 602 0 -5 43 c-3 23 -8 69
-11 102 -11 105 -44 217 -97 325 -44 91 -63 116 -137 190 -99 98 -183 145
-321 180 -82 21 -232 33 -295 24z m246 -222 c138 -67 240 -226 256 -398 l6
-64 -417 0 c-397 0 -416 1 -416 18 0 44 43 180 74 236 65 115 138 182 239 218
71 25 195 21 258 -10z"/>
<path d="M13290 2005 l0 -305 130 0 130 0 0 215 0 215 350 0 c193 0 350 -3
350 -6 0 -4 -915 -1163 -968 -1226 -13 -16 -9 -92 14 -235 l5 -33 689 0 690 0
0 330 0 330 -130 0 -130 0 0 -235 0 -235 -395 0 c-217 0 -395 2 -395 5 0 4
483 614 780 985 64 80 137 172 162 205 l46 60 -22 115 -22 115 -642 3 -642 2
0 -305z"/>
<path d="M21580 2220 l0 -90 150 0 150 0 0 -655 0 -655 -150 0 -150 0 0 -95 0
-95 475 0 475 0 0 95 0 95 -150 0 -150 0 0 745 0 745 -325 0 -325 0 0 -90z"/>
</g>
</svg>
